<svg xmlns="http://www.w3.org/2000/svg" viewBox="0 0 378.92 378.82"><defs><style>.cls-1{fill:#797979;}</style></defs><g id="Layer_2" data-name="Layer 2"><g id="Layer_1-2" data-name="Layer 1"><path class="cls-1" d="M120.77,378.82h-5.18c-6.26-2.68-8.31-7.52-8.19-14.16.28-15,.09-30.09.09-45.13v-4.06c-1.29-.14-2.13-.25-3-.32-13.89-1.14-27.31-4.4-39.66-10.8C23,282.69,1.32,248.08.33,201c-.6-28.84-.23-57.71-.07-86.56C.41,86.17,9.3,60.91,28,39.55,51.35,12.85,81.11,0,116.49,0q73.05,0,146.09,0c26.91,0,51.24,7.54,72.49,24.23,19.6,15.39,33,35.06,39.46,59.19,2.08,7.79,3,15.91,4.39,23.88V208.65a12.55,12.55,0,0,0-.54,2.13A109,109,0,0,1,360.27,264q-23.1,34.89-63.3,47c-13.26,4-26.86,4.77-40.57,4.64a165.33,165.33,0,0,0-75.64,17.12c-19.62,9.68-36.08,23.4-51.16,39C127,374.46,123.73,376.48,120.77,378.82Zm68.88-195.88a25.15,25.15,0,0,0,25.08-25.21,25.18,25.18,0,1,0-50.35.17A25.17,25.17,0,0,0,189.65,182.94Zm-82.14,0a25.1,25.1,0,0,0,25.16-25.11,25.18,25.18,0,1,0-25.16,25.11Zm164.1,0a25.19,25.19,0,1,0-25.16-25.11A25.24,25.24,0,0,0,271.61,182.94Z"/></g></g></svg>