<svg xmlns="http://www.w3.org/2000/svg" viewBox="0 0 456.95 682.53"><defs><style>.cls-1{fill:#0a66c2;}</style></defs><g id="Layer_2" data-name="Layer 2"><g id="Layer_1-2" data-name="Layer 1"><path class="cls-1" d="M232.42,0c10.21,4,13.18,11.83,13,22.36-.43,25.85-.07,51.71-.17,77.57-.06,13.82-13.08,22.07-24.67,15.77a15.77,15.77,0,0,1-8.72-14.56q-.13-42.07,0-84.16c0-8.9,5.39-13.86,13-17Z"/><path class="cls-1" d="M228.28,682.48c-16.31,0-32.62,0-48.92,0-31.69-.06-56.36-24.74-56.33-56.41,0-30.13.55,33.23.07,3.11C122.83,612,122,594.7,116.8,578a96.63,96.63,0,0,0-27.21-43.23c-38.62-35.55-62.85-79-70.36-131.16-16.67-115.68,58.87-218,165.7-240.34,75-15.65,140.41,5.31,194.68,58.86,35.09,34.63,55,77.53,59.82,126.73,7.15,73-17.26,134.39-70.22,184.53-19,18-29.71,39.6-32.46,65.42-4.15,39-1.83-15.43-2.5,23.61a94.53,94.53,0,0,1-1.19,15c-4.56,25.41-27.59,44.8-53.5,45.06C262.47,682.62,245.38,682.48,228.28,682.48Zm.54-65.49c22.11,0,44.22-.06,66.33,0,3.48,0,5.12-.81,5-4.72-.12-4.21.54-8.44.89-12.66,3.05-36.18,17.2-66.89,43.8-92,48.25-45.6,68.4-101.33,57.77-167.28-12.58-78.11-81.51-141-160.21-146.09-56.12-3.64-104,15.25-142.33,56.32-38.47,41.28-53.2,90.9-46,146.63,5.71,44,26.2,80.73,58.7,110.72a134.11,134.11,0,0,1,35.93,53.83c5.7,15.82,8,32.22,8.71,48.88.21,4.86,1.71,6.57,6.92,6.49C185.85,616.79,207.33,617,228.82,617Z"/><path class="cls-1" d="M18.37,67.71c3.85-.16,8.36,2.12,11.7,6.45q21.39,27.71,42.59,55.54A16.67,16.67,0,1,1,46.3,150.12C32,131.71,17.82,113.16,3.69,94.59-.57,89-1.21,82.76,2.13,76.5,5.17,70.8,10.07,67.83,18.37,67.71Z"/><path class="cls-1" d="M380.11,139.66c1.55-3.48,2.53-7.39,4.76-10.36C398.6,111,412.56,92.83,426.58,74.73c6.12-7.92,16.23-9.37,23.75-3.73s8.89,15.91,2.88,23.84q-21.15,27.94-42.65,55.63a16.37,16.37,0,0,1-18.68,5.13C385.17,153.15,381.11,147.33,380.11,139.66Z"/><polygon class="cls-1" points="127.7 202 52.33 298.29 38.13 420.37 76.26 497.76 127.7 567.91 149.71 636.7 251.5 654.58 318.91 624.32 335.42 543.15 418.53 428.29 418.53 302.42 347.8 213 259.76 174.49 156.59 193.82 127.7 202"/></g></g></svg>