<svg xmlns="http://www.w3.org/2000/svg" viewBox="0 0 408.76 408.87"><defs><style>.cls-1{fill:#ecba16;}.cls-2{fill:#fff;}</style></defs><g id="Layer_2" data-name="Layer 2"><g id="Layer_1-2" data-name="Layer 1"><path class="cls-1" d="M408.76,192.42v24c-.25,1.41-.53,2.82-.74,4.24-1.28,8.8-2,17.72-3.89,26.39-10.69,49.07-35.88,89.31-75.86,119.6-49.74,37.68-105.76,50.17-166.83,37.44-48.89-10.2-88.64-35.82-119-75.35C9.57,286-4.08,237.43,1.05,184c4.16-43.34,21-81.6,49.86-114.27C82.57,33.88,122,11.57,169.14,3.18c7.69-1.37,15.49-2.13,23.24-3.18h24a22.58,22.58,0,0,0,3.08.66c32,2.26,61.89,11.4,89.18,28.12,53,32.45,85.53,79.25,97,140.45C407,176.89,407.71,184.69,408.76,192.42Z"/><path class="cls-1" d="M188.46,218.79v4.81c0,19-.05,38,0,57.06,0,10.54,7,17.59,16.73,17.19,8.69-.36,15-7.28,15-16.89.08-19.29,0-38.58,0-57.87v-4.3h6.25c18.89,0,37.78.09,56.67,0,11.48-.08,19-10.74,15.17-21.2-2.43-6.69-8.27-10.42-16.72-10.45-18.76-.06-37.51,0-56.27,0h-5.1v-5.5c0-18.89.09-37.78,0-56.67-.08-11.61-9.68-19.18-20.25-16.23-7.11,2-11.48,8.23-11.5,16.73,0,19,0,38,0,57.07v4.6h-5.2q-27.34,0-54.68,0a38.26,38.26,0,0,0-5.56.35,15.71,15.71,0,0,0,1.44,31.27c4.78.2,9.57.07,14.36.07Z"/><path class="cls-2" d="M188.46,218.79H138.82c-4.79,0-9.58.13-14.36-.07A15.71,15.71,0,0,1,123,187.44a38.26,38.26,0,0,1,5.56-.35q27.35,0,54.68,0h5.2v-4.6c0-19,0-38,0-57.07,0-8.5,4.39-14.75,11.5-16.73,10.57-3,20.17,4.62,20.25,16.23.12,18.89,0,37.78,0,56.67v5.5h5.1c18.76,0,37.51,0,56.27,0,8.45,0,14.29,3.76,16.72,10.45,3.81,10.46-3.69,21.12-15.17,21.2-18.89.14-37.78,0-56.67,0h-6.25v4.3c0,19.29.06,38.58,0,57.87,0,9.61-6.33,16.53-15,16.89-9.74.4-16.69-6.65-16.73-17.19-.07-19,0-38,0-57.06Z"/></g></g></svg>