<svg xmlns="http://www.w3.org/2000/svg" viewBox="0 0 479.69 452.91"><defs><style>.cls-1{fill:#797979;}</style></defs><g id="Layer_2" data-name="Layer 2"><g id="Layer_1-2" data-name="Layer 1"><path class="cls-1" d="M239.78,313c-17.8,1.67-34.89,2.83-51.87,5a234.42,234.42,0,0,0-66.1,18c-33.08,14.68-57.69,39.64-75,73.37-5.44,10.59-10.52,21.4-15.7,32.15-4.26,8.83-11.13,12.93-18.57,11C4.5,450.29,0,443.51,0,433.35c0-40.3,1.05-80.54,8-120.27C14.89,274,27.48,237.77,53,208.13,74.6,183,101.47,167.28,131.26,157c33.42-11.58,67.92-15.73,102.77-17.28,1.66-.07,3.32-.18,5.75-.31v-5.79c0-37.73.07-75.47-.05-113.21,0-8.36,2.23-15.09,9.48-18.7,7.53-3.75,13.72-.79,19.48,5Q370.48,109.2,472.37,211.58c9.76,9.81,9.76,19.91,0,29.73q-102,102.63-204.06,205.26c-5.66,5.69-11.81,8.27-19.1,4.63-7-3.5-9.49-10-9.46-18.18.1-37.55,0-75.1,0-112.66ZM34.7,365.71c.52-.63,1.1-1.22,1.58-1.9,24.22-34.36,56.51-55.43,94.06-67.92,40.2-13.37,81.56-16.89,123.29-17.19,11.77-.09,18.11,6.88,18.12,19.85q0,45.17,0,90.32v6.79L440,226.43,271.75,57.22v7.49q0,45.44,0,90.86c0,11.28-6.51,18.33-16.75,18.63-11.48.32-23,.41-34.43,1.16-30.65,2-60.89,6.61-89.85,18.44-25.29,10.34-47.26,25.8-63.47,49.81C42.8,279.8,37.16,322.15,34.7,365.71Z"/><polygon class="cls-1" points="252.93 23.84 257.92 141.22 252.93 157.53 119.25 178.18 57.4 231.44 21.48 311.86 21.48 395.66 21.48 410.77 91.32 329.25 239.84 296.65 257.92 309.69 257.92 390.12 257.92 433.6 460.44 226.44 252.93 23.84"/></g></g></svg>