<svg xmlns="http://www.w3.org/2000/svg" viewBox="0 0 484.66 723.91"><defs><style>.cls-1{fill:#0a66c2;}</style></defs><g id="Layer_2" data-name="Layer 2"><g id="Layer_1-2" data-name="Layer 1"><path class="cls-1" d="M246.51,0c10.83,4.29,14,12.55,13.8,23.71-.46,27.42-.07,54.86-.18,82.28-.06,14.66-13.88,23.41-26.17,16.72a16.72,16.72,0,0,1-9.25-15.44q-.14-44.62,0-89.26c0-9.44,5.72-14.7,13.84-18Z"/><path class="cls-1" d="M242.12,723.85c-17.3,0-34.59,0-51.89,0-33.61-.07-59.77-26.25-59.74-59.84,0-32,.58,35.25.07,3.3-.29-18.24-1.18-36.56-6.68-54.27A102.41,102.41,0,0,0,95,567.19c-41-37.71-66.66-83.83-74.62-139.11C2.71,305.38,82.84,196.82,196.15,173.17c79.54-16.6,148.92,5.63,206.47,62.43C439.84,272.33,461,317.82,466.07,370c7.58,77.4-18.3,142.54-74.48,195.72-20.13,19.06-31.51,42-34.42,69.38-4.41,41.33-1.94-16.36-2.66,25A98.94,98.94,0,0,1,353.25,676C348.42,703,324,723.53,296.51,723.81,278.38,724,260.25,723.85,242.12,723.85Zm.57-69.46c23.45,0,46.9-.06,70.35.05,3.7,0,5.43-.86,5.32-5-.13-4.46.57-9,.94-13.43,3.24-38.37,18.24-71,46.45-97.61C416.93,490,438.3,430.93,427,361c-13.35-82.85-86.46-149.55-169.93-155-59.52-3.85-110.34,16.18-151,59.74-40.81,43.78-56.43,96.41-48.76,155.52,6,46.68,27.79,85.62,62.26,117.43a142.37,142.37,0,0,1,38.11,57.09c6,16.78,8.48,34.18,9.23,51.85.22,5.15,1.82,7,7.34,6.88C197.11,654.18,219.9,654.39,242.69,654.39Z"/><path class="cls-1" d="M19.48,71.82c4.09-.18,8.87,2.25,12.42,6.84Q54.58,108,77.07,137.57a17.68,17.68,0,1,1-28,21.65C33.9,139.69,18.9,120,3.91,100.32-.61,94.38-1.28,87.78,2.26,81.13,5.48,75.1,10.68,71.94,19.48,71.82Z"/><path class="cls-1" d="M403.15,148.13c1.65-3.69,2.68-7.84,5.05-11Q430.05,108,452.43,79.26c6.5-8.4,17.23-9.94,25.2-4s9.43,16.87,3.06,25.28q-22.44,29.64-45.24,59A17.36,17.36,0,0,1,415.64,165C408.52,162.44,404.22,156.26,403.15,148.13Z"/><polygon class="cls-1" points="135.44 214.24 55.5 316.37 40.44 445.86 80.88 527.93 135.44 602.34 158.78 675.29 266.75 694.26 338.24 662.16 355.75 576.08 443.9 454.25 443.9 320.75 368.88 225.91 275.5 185.06 166.08 205.56 135.44 214.24"/></g></g></svg>