<svg xmlns="http://www.w3.org/2000/svg" viewBox="0 0 231.53 408.86"><defs><style>.cls-1{fill:#ecba16;}</style></defs><g id="Layer_2" data-name="Layer 2"><g id="Layer_1-2" data-name="Layer 1"><path class="cls-1" d="M4.75,408.86c-5.46-3.81-5.9-5.76-2.91-12.87q36.53-86.65,73-173.31c.56-1.33,1.06-2.68,1.83-4.62H9.1c-8.37,0-11.17-4.41-7.46-11.83Q51.71,106.06,101.76,5.88c2-4.06,4.73-5.89,9.34-5.88q52.29.17,104.57,0c3.36,0,6.47.34,8.2,3.68s.3,6.1-1.48,8.91q-37.6,59.26-75.15,118.58c-.91,1.45-1.81,2.91-3.22,5.17h76.23c1.2,0,2.4,0,3.6,0,3.19,0,5.72,1,7.08,4.12s.34,5.43-1.59,7.72l-27.74,33Q108.81,291.42,16,401.58c-2.2,2.61-4.81,4.86-7.24,7.28Z"/></g></g></svg>