<svg xmlns="http://www.w3.org/2000/svg" viewBox="0 0 183.59 183.57"><defs><style>.cls-1{fill:#0a66c2;}</style></defs><g id="Layer_2" data-name="Layer 2"><g id="Layer_1-2" data-name="Layer 1"><path class="cls-1" d="M156.68,183.57H27.25c-.34-.1-.67-.24-1-.31C13.18,180.9,4.88,173.23,1,160.63c-.43-1.41-.69-2.87-1-4.3V82.86a7.79,7.79,0,0,0,.31-1,30.11,30.11,0,0,1,10-18.49Q40.52,36,70.71,8.6C83.45-2.9,100.23-2.86,113,8.68c20,18.11,40,36.31,60,54.39a30.79,30.79,0,0,1,10.61,24.08c-.05,21.14,0,42.28,0,63.42a36.21,36.21,0,0,1-.38,5.89c-2,11.79-8,20.55-19.3,25.15A59.67,59.67,0,0,1,156.68,183.57ZM91.32,166q30.2,0,60.4,0c7.24,0,12.52-5.18,12.53-12.36q.06-33.24,0-66.47a14.1,14.1,0,0,0-4.8-10.63c-19.8-18.09-39.77-36-59.5-54.16-5.37-4.94-12.93-3.73-17.08,0-6.1,5.46-12.14,11-18.2,16.48Q43.58,58,22.45,77.06A10.25,10.25,0,0,0,18.75,83a28.65,28.65,0,0,0-.4,4.81q0,32.43,0,64.86c0,8.16,5.16,13.32,13.3,13.32Z"/></g></g></svg>